<mxfile host="65bd71144e">
    <diagram id="QLE7-0qFJbcAl2cDQy-6" name="Page-1">
        <mxGraphModel dx="1053" dy="576" grid="1" gridSize="10" guides="1" tooltips="1" connect="1" arrows="1" fold="1" page="1" pageScale="1" pageWidth="1654" pageHeight="2336" math="0" shadow="0">
            <root>
                <mxCell id="0"/>
                <mxCell id="1" parent="0"/>
                <mxCell id="2" value="movies" style="rounded=0;whiteSpace=wrap;html=1;" vertex="1" parent="1">
                    <mxGeometry x="820" y="795" width="120" height="60" as="geometry"/>
                </mxCell>
                <mxCell id="3" value="name" style="ellipse;whiteSpace=wrap;html=1;" vertex="1" parent="1">
                    <mxGeometry x="1000" y="900" width="90" height="30" as="geometry"/>
                </mxCell>
                <mxCell id="4" value="premiere&lt;span style=&quot;color: rgba(0, 0, 0, 0); font-family: monospace; font-size: 0px; text-align: start;&quot;&gt;%3CmxGraphModel%3E%3Croot%3E%3CmxCell%20id%3D%220%22%2F%3E%3CmxCell%20id%3D%221%22%20parent%3D%220%22%2F%3E%3CmxCell%20id%3D%222%22%20value%3D%22name%22%20style%3D%22ellipse%3BwhiteSpace%3Dwrap%3Bhtml%3D1%3B%22%20vertex%3D%221%22%20parent%3D%221%22%3E%3CmxGeometry%20x%3D%22430%22%20y%3D%22430%22%20width%3D%2290%22%20height%3D%2230%22%20as%3D%22geometry%22%2F%3E%3C%2FmxCell%3E%3C%2Froot%3E%3C%2FmxGraphModel%3E&lt;/span&gt;" style="ellipse;whiteSpace=wrap;html=1;" vertex="1" parent="1">
                    <mxGeometry x="710" y="855" width="90" height="30" as="geometry"/>
                </mxCell>
                <mxCell id="5" value="genre" style="ellipse;whiteSpace=wrap;html=1;" vertex="1" parent="1">
                    <mxGeometry x="975" y="810" width="90" height="30" as="geometry"/>
                </mxCell>
                <mxCell id="6" value="origin_country&lt;span style=&quot;color: rgba(0, 0, 0, 0); font-family: monospace; font-size: 0px; text-align: start;&quot;&gt;%3CmxGraphModel%3E%3Croot%3E%3CmxCell%20id%3D%220%22%2F%3E%3CmxCell%20id%3D%221%22%20parent%3D%220%22%2F%3E%3CmxCell%20id%3D%222%22%20value%3D%22genre%22%20style%3D%22ellipse%3BwhiteSpace%3Dwrap%3Bhtml%3D1%3B%22%20vertex%3D%221%22%20parent%3D%221%22%3E%3CmxGeometry%20x%3D%22710%22%20y%3D%22490%22%20width%3D%2290%22%20height%3D%2230%22%20as%3D%22geometry%22%2F%3E%3C%2FmxCell%3E%3C%2Froot%3E%3C%2FmxGraphModel%3E&lt;/span&gt;" style="ellipse;whiteSpace=wrap;html=1;" vertex="1" parent="1">
                    <mxGeometry x="827" y="920" width="90" height="30" as="geometry"/>
                </mxCell>
                <mxCell id="7" value="name_of_production" style="ellipse;whiteSpace=wrap;html=1;" vertex="1" parent="1">
                    <mxGeometry x="917" y="945" width="120" height="40" as="geometry"/>
                </mxCell>
                <mxCell id="8" value="" style="endArrow=none;html=1;" edge="1" parent="1" source="3" target="2">
                    <mxGeometry width="50" height="50" relative="1" as="geometry">
                        <mxPoint x="895" y="895" as="sourcePoint"/>
                        <mxPoint x="945" y="845" as="targetPoint"/>
                    </mxGeometry>
                </mxCell>
                <mxCell id="9" value="" style="endArrow=none;html=1;" edge="1" parent="1" source="4" target="2">
                    <mxGeometry width="50" height="50" relative="1" as="geometry">
                        <mxPoint x="890.9521677307052" y="774.996641758606" as="sourcePoint"/>
                        <mxPoint x="890.0000000000002" y="805" as="targetPoint"/>
                    </mxGeometry>
                </mxCell>
                <mxCell id="10" value="" style="endArrow=none;html=1;" edge="1" parent="1" source="5" target="2">
                    <mxGeometry width="50" height="50" relative="1" as="geometry">
                        <mxPoint x="966.8476910057689" y="792.8623938856841" as="sourcePoint"/>
                        <mxPoint x="944.5454545454545" y="805" as="targetPoint"/>
                    </mxGeometry>
                </mxCell>
                <mxCell id="11" value="" style="endArrow=none;html=1;" edge="1" parent="1" source="6" target="2">
                    <mxGeometry width="50" height="50" relative="1" as="geometry">
                        <mxPoint x="996.7576274526555" y="824.151267764545" as="sourcePoint"/>
                        <mxPoint x="950.0000000000002" y="828.9999999999999" as="targetPoint"/>
                    </mxGeometry>
                </mxCell>
                <mxCell id="12" value="" style="endArrow=none;html=1;" edge="1" parent="1" source="7" target="2">
                    <mxGeometry width="50" height="50" relative="1" as="geometry">
                        <mxPoint x="994.1167126478899" y="860.9483599472155" as="sourcePoint"/>
                        <mxPoint x="950.0000000000002" y="850" as="targetPoint"/>
                    </mxGeometry>
                </mxCell>
                <mxCell id="13" value="actors" style="rounded=0;whiteSpace=wrap;html=1;" vertex="1" parent="1">
                    <mxGeometry x="125" y="790" width="120" height="60" as="geometry"/>
                </mxCell>
                <mxCell id="14" value="firstname" style="ellipse;whiteSpace=wrap;html=1;" vertex="1" parent="1">
                    <mxGeometry x="55" y="740" width="90" height="30" as="geometry"/>
                </mxCell>
                <mxCell id="15" value="lastname" style="ellipse;whiteSpace=wrap;html=1;" vertex="1" parent="1">
                    <mxGeometry x="25" y="780" width="90" height="30" as="geometry"/>
                </mxCell>
                <mxCell id="16" value="nickname" style="ellipse;whiteSpace=wrap;html=1;" vertex="1" parent="1">
                    <mxGeometry x="15" y="830" width="90" height="30" as="geometry"/>
                </mxCell>
                <mxCell id="17" value="date_od_birth" style="ellipse;whiteSpace=wrap;html=1;" vertex="1" parent="1">
                    <mxGeometry x="55" y="870" width="90" height="30" as="geometry"/>
                </mxCell>
                <mxCell id="18" value="agent_code" style="ellipse;whiteSpace=wrap;html=1;" vertex="1" parent="1">
                    <mxGeometry x="115" y="915" width="90" height="30" as="geometry"/>
                </mxCell>
                <mxCell id="19" value="actors_movies" style="rhombus;whiteSpace=wrap;html=1;" vertex="1" parent="1">
                    <mxGeometry x="480" y="780" width="100" height="90" as="geometry"/>
                </mxCell>
                <mxCell id="20" value="" style="endArrow=none;html=1;" edge="1" parent="1" source="13" target="19">
                    <mxGeometry width="50" height="50" relative="1" as="geometry">
                        <mxPoint x="610" y="790" as="sourcePoint"/>
                        <mxPoint x="660" y="740" as="targetPoint"/>
                    </mxGeometry>
                </mxCell>
                <mxCell id="21" value="" style="endArrow=none;html=1;exitX=1;exitY=0.5;exitDx=0;exitDy=0;" edge="1" parent="1" source="19" target="2">
                    <mxGeometry width="50" height="50" relative="1" as="geometry">
                        <mxPoint x="570" y="790" as="sourcePoint"/>
                        <mxPoint x="620" y="740" as="targetPoint"/>
                    </mxGeometry>
                </mxCell>
                <mxCell id="22" value="salary" style="ellipse;whiteSpace=wrap;html=1;" vertex="1" parent="1">
                    <mxGeometry x="145" y="510" width="90" height="30" as="geometry"/>
                </mxCell>
                <UserObject label="m" placeholders="1" name="Variable" id="23">
                    <mxCell style="text;html=1;strokeColor=none;fillColor=none;align=center;verticalAlign=middle;whiteSpace=wrap;overflow=hidden;" vertex="1" parent="1">
                        <mxGeometry x="550" y="830" width="80" height="20" as="geometry"/>
                    </mxCell>
                </UserObject>
                <UserObject label="m" placeholders="1" name="Variable" id="24">
                    <mxCell style="text;html=1;strokeColor=none;fillColor=none;align=center;verticalAlign=middle;whiteSpace=wrap;overflow=hidden;" vertex="1" parent="1">
                        <mxGeometry x="385" y="835" width="80" height="20" as="geometry"/>
                    </mxCell>
                </UserObject>
                <mxCell id="25" value="" style="endArrow=none;html=1;" edge="1" parent="1" source="18" target="13">
                    <mxGeometry width="50" height="50" relative="1" as="geometry">
                        <mxPoint x="335" y="950" as="sourcePoint"/>
                        <mxPoint x="385" y="900" as="targetPoint"/>
                    </mxGeometry>
                </mxCell>
                <mxCell id="26" value="" style="endArrow=none;html=1;" edge="1" parent="1" source="17" target="13">
                    <mxGeometry width="50" height="50" relative="1" as="geometry">
                        <mxPoint x="215.5482608214902" y="895.0735804014664" as="sourcePoint"/>
                        <mxPoint x="204.375" y="860" as="targetPoint"/>
                    </mxGeometry>
                </mxCell>
                <mxCell id="27" value="" style="endArrow=none;html=1;" edge="1" parent="1" source="16" target="13">
                    <mxGeometry width="50" height="50" relative="1" as="geometry">
                        <mxPoint x="127.89233469354758" y="881.236665620348" as="sourcePoint"/>
                        <mxPoint x="155.76923076923094" y="860" as="targetPoint"/>
                    </mxGeometry>
                </mxCell>
                <mxCell id="28" value="" style="endArrow=none;html=1;" edge="1" parent="1" source="15" target="13">
                    <mxGeometry width="50" height="50" relative="1" as="geometry">
                        <mxPoint x="109.13586618562795" y="847.5959172081245" as="sourcePoint"/>
                        <mxPoint x="135" y="842" as="targetPoint"/>
                    </mxGeometry>
                </mxCell>
                <mxCell id="29" value="" style="endArrow=none;html=1;" edge="1" parent="1" source="14" target="13">
                    <mxGeometry width="50" height="50" relative="1" as="geometry">
                        <mxPoint x="118.26193160095568" y="812.895319219245" as="sourcePoint"/>
                        <mxPoint x="135" y="816.9565217391305" as="targetPoint"/>
                    </mxGeometry>
                </mxCell>
                <mxCell id="30" value="films" style="rounded=0;whiteSpace=wrap;html=1;" vertex="1" parent="1">
                    <mxGeometry x="1260" y="425" width="120" height="60" as="geometry"/>
                </mxCell>
                <mxCell id="31" value="city_premiere" style="ellipse;whiteSpace=wrap;html=1;" vertex="1" parent="1">
                    <mxGeometry x="1405" y="340" width="120" height="40" as="geometry"/>
                </mxCell>
                <mxCell id="32" value="first_week_income" style="ellipse;whiteSpace=wrap;html=1;" vertex="1" parent="1">
                    <mxGeometry x="1420" y="410" width="120" height="40" as="geometry"/>
                </mxCell>
                <mxCell id="33" value="" style="endArrow=none;html=1;" edge="1" parent="1" source="30" target="31">
                    <mxGeometry width="50" height="50" relative="1" as="geometry">
                        <mxPoint x="1150" y="475" as="sourcePoint"/>
                        <mxPoint x="1200" y="425" as="targetPoint"/>
                    </mxGeometry>
                </mxCell>
                <mxCell id="34" value="" style="endArrow=none;html=1;" edge="1" parent="1" source="30" target="32">
                    <mxGeometry width="50" height="50" relative="1" as="geometry">
                        <mxPoint x="1370" y="425" as="sourcePoint"/>
                        <mxPoint x="1330" y="415" as="targetPoint"/>
                    </mxGeometry>
                </mxCell>
                <mxCell id="35" value="format" style="ellipse;whiteSpace=wrap;html=1;" vertex="1" parent="1">
                    <mxGeometry x="1520" y="460" width="90" height="30" as="geometry"/>
                </mxCell>
                <mxCell id="36" value="" style="endArrow=none;html=1;" edge="1" parent="1" source="30" target="35">
                    <mxGeometry width="50" height="50" relative="1" as="geometry">
                        <mxPoint x="1380" y="475" as="sourcePoint"/>
                        <mxPoint x="1340" y="465" as="targetPoint"/>
                    </mxGeometry>
                </mxCell>
                <mxCell id="37" value="tv_series" style="rounded=0;whiteSpace=wrap;html=1;" vertex="1" parent="1">
                    <mxGeometry x="1350" y="975" width="120" height="60" as="geometry"/>
                </mxCell>
                <mxCell id="38" value="aired_channel" style="ellipse;whiteSpace=wrap;html=1;" vertex="1" parent="1">
                    <mxGeometry x="1300" y="1065" width="90" height="30" as="geometry"/>
                </mxCell>
                <mxCell id="39" value="" style="endArrow=none;html=1;" edge="1" parent="1" source="38" target="37">
                    <mxGeometry width="50" height="50" relative="1" as="geometry">
                        <mxPoint x="1485.71" y="1064.22" as="sourcePoint"/>
                        <mxPoint x="1580" y="975" as="targetPoint"/>
                    </mxGeometry>
                </mxCell>
                <mxCell id="40" value="episodes_number" style="ellipse;whiteSpace=wrap;html=1;" vertex="1" parent="1">
                    <mxGeometry x="1500" y="980" width="110" height="40" as="geometry"/>
                </mxCell>
                <mxCell id="41" value="" style="endArrow=none;html=1;" edge="1" parent="1" source="40" target="37">
                    <mxGeometry width="50" height="50" relative="1" as="geometry">
                        <mxPoint x="1367.6789310033905" y="1075.6076999420973" as="sourcePoint"/>
                        <mxPoint x="1394" y="1045" as="targetPoint"/>
                    </mxGeometry>
                </mxCell>
                <mxCell id="42" value="number_of_expected_seasons" style="ellipse;whiteSpace=wrap;html=1;" vertex="1" parent="1">
                    <mxGeometry x="1450" y="900" width="110" height="40" as="geometry"/>
                </mxCell>
                <mxCell id="43" value="" style="endArrow=none;html=1;exitX=0.5;exitY=1;exitDx=0;exitDy=0;" edge="1" parent="1" source="42" target="37">
                    <mxGeometry width="50" height="50" relative="1" as="geometry">
                        <mxPoint x="1336.2873221056789" y="1027.7764335062425" as="sourcePoint"/>
                        <mxPoint x="1360" y="1023.8888888888889" as="targetPoint"/>
                    </mxGeometry>
                </mxCell>
                <mxCell id="44" value="oscars" style="rounded=0;whiteSpace=wrap;html=1;" vertex="1" parent="1">
                    <mxGeometry x="475" y="1140" width="120" height="60" as="geometry"/>
                </mxCell>
                <mxCell id="45" value="movie_type" style="ellipse;whiteSpace=wrap;html=1;" vertex="1" parent="1">
                    <mxGeometry x="1020" y="730" width="120" height="40" as="geometry"/>
                </mxCell>
                <mxCell id="46" value="" style="endArrow=none;html=1;" edge="1" parent="1" source="45" target="2">
                    <mxGeometry width="50" height="50" relative="1" as="geometry">
                        <mxPoint x="992.7986688490848" y="855.1397485603827" as="sourcePoint"/>
                        <mxPoint x="950" y="846.6129032258066" as="targetPoint"/>
                    </mxGeometry>
                </mxCell>
                <mxCell id="47" value="" style="endArrow=none;html=1;exitX=0.5;exitY=0;exitDx=0;exitDy=0;" edge="1" parent="1" source="37" target="2">
                    <mxGeometry width="50" height="50" relative="1" as="geometry">
                        <mxPoint x="870" y="810" as="sourcePoint"/>
                        <mxPoint x="920" y="760" as="targetPoint"/>
                    </mxGeometry>
                </mxCell>
                <UserObject label="1" placeholders="1" name="Variable" id="48">
                    <mxCell style="text;html=1;strokeColor=none;fillColor=none;align=center;verticalAlign=middle;whiteSpace=wrap;overflow=hidden;" vertex="1" parent="1">
                        <mxGeometry x="1020" y="635" width="80" height="20" as="geometry"/>
                    </mxCell>
                </UserObject>
                <mxCell id="49" value="" style="endArrow=none;html=1;" edge="1" parent="1" source="30" target="2">
                    <mxGeometry width="50" height="50" relative="1" as="geometry">
                        <mxPoint x="850" y="890" as="sourcePoint"/>
                        <mxPoint x="807.5" y="720" as="targetPoint"/>
                    </mxGeometry>
                </mxCell>
                <UserObject label="1" placeholders="1" name="Variable" id="50">
                    <mxCell style="text;html=1;strokeColor=none;fillColor=none;align=center;verticalAlign=middle;whiteSpace=wrap;overflow=hidden;" vertex="1" parent="1">
                        <mxGeometry x="1170" y="925" width="80" height="20" as="geometry"/>
                    </mxCell>
                </UserObject>
                <UserObject label="1" placeholders="1" name="Variable" id="51">
                    <mxCell style="text;html=1;strokeColor=none;fillColor=none;align=center;verticalAlign=middle;whiteSpace=wrap;overflow=hidden;" vertex="1" parent="1">
                        <mxGeometry x="1090" y="580" width="80" height="20" as="geometry"/>
                    </mxCell>
                </UserObject>
                <mxCell id="52" value="movie_id" style="ellipse;whiteSpace=wrap;html=1;" vertex="1" parent="1">
                    <mxGeometry x="1410" y="1075" width="90" height="30" as="geometry"/>
                </mxCell>
                <mxCell id="53" value="movie_id" style="ellipse;whiteSpace=wrap;html=1;" vertex="1" parent="1">
                    <mxGeometry x="1420" y="485" width="90" height="30" as="geometry"/>
                </mxCell>
                <mxCell id="54" value="" style="endArrow=none;html=1;" edge="1" parent="1" source="52" target="37">
                    <mxGeometry width="50" height="50" relative="1" as="geometry">
                        <mxPoint x="1367.6789310034042" y="1075.6076999420816" as="sourcePoint"/>
                        <mxPoint x="1394" y="1045" as="targetPoint"/>
                    </mxGeometry>
                </mxCell>
                <mxCell id="55" value="" style="endArrow=none;html=1;" edge="1" parent="1" source="53" target="30">
                    <mxGeometry width="50" height="50" relative="1" as="geometry">
                        <mxPoint x="1152.3256354833022" y="535.2197424122858" as="sourcePoint"/>
                        <mxPoint x="1130.8823529411764" y="495" as="targetPoint"/>
                    </mxGeometry>
                </mxCell>
                <mxCell id="56" value="actors_movies_id" style="ellipse;whiteSpace=wrap;html=1;" vertex="1" parent="1">
                    <mxGeometry x="480" y="1250" width="120" height="50" as="geometry"/>
                </mxCell>
                <mxCell id="57" value="" style="endArrow=none;html=1;" edge="1" parent="1" source="44" target="56">
                    <mxGeometry width="50" height="50" relative="1" as="geometry">
                        <mxPoint x="439.13477535978177" y="1010.0027729028884" as="sourcePoint"/>
                        <mxPoint x="436.7647058823529" y="970" as="targetPoint"/>
                    </mxGeometry>
                </mxCell>
                <UserObject label="1" placeholders="1" name="Variable" id="58">
                    <mxCell style="text;html=1;strokeColor=none;fillColor=none;align=center;verticalAlign=middle;whiteSpace=wrap;overflow=hidden;" vertex="1" parent="1">
                        <mxGeometry x="1130" y="915" width="80" height="20" as="geometry"/>
                    </mxCell>
                </UserObject>
                <mxCell id="59" value="directors" style="rounded=0;whiteSpace=wrap;html=1;" vertex="1" parent="1">
                    <mxGeometry x="1260" y="640" width="120" height="60" as="geometry"/>
                </mxCell>
                <mxCell id="60" value="firstname" style="ellipse;whiteSpace=wrap;html=1;" vertex="1" parent="1">
                    <mxGeometry x="1400" y="640" width="90" height="30" as="geometry"/>
                </mxCell>
                <mxCell id="61" value="lastname" style="ellipse;whiteSpace=wrap;html=1;" vertex="1" parent="1">
                    <mxGeometry x="1410" y="700" width="90" height="30" as="geometry"/>
                </mxCell>
                <mxCell id="62" value="genre" style="ellipse;whiteSpace=wrap;html=1;" vertex="1" parent="1">
                    <mxGeometry x="1335" y="730" width="90" height="30" as="geometry"/>
                </mxCell>
                <mxCell id="63" value="expertise" style="ellipse;whiteSpace=wrap;html=1;" vertex="1" parent="1">
                    <mxGeometry x="1230" y="720" width="90" height="30" as="geometry"/>
                </mxCell>
                <mxCell id="64" value="director_id" style="ellipse;whiteSpace=wrap;html=1;" vertex="1" parent="1">
                    <mxGeometry x="1400" y="530" width="90" height="30" as="geometry"/>
                </mxCell>
                <mxCell id="65" value="" style="endArrow=none;html=1;" edge="1" parent="1" source="75" target="30">
                    <mxGeometry width="50" height="50" relative="1" as="geometry">
                        <mxPoint x="1393.1421947527465" y="516.0923106710159" as="sourcePoint"/>
                        <mxPoint x="1366.923076923077" y="495" as="targetPoint"/>
                    </mxGeometry>
                </mxCell>
                <mxCell id="66" value="" style="endArrow=none;html=1;" edge="1" parent="1" source="60" target="59">
                    <mxGeometry width="50" height="50" relative="1" as="geometry">
                        <mxPoint x="1308.1421947527465" y="516.0923106710159" as="sourcePoint"/>
                        <mxPoint x="1281.923076923077" y="495" as="targetPoint"/>
                    </mxGeometry>
                </mxCell>
                <mxCell id="67" value="" style="endArrow=none;html=1;" edge="1" parent="1" source="61" target="59">
                    <mxGeometry width="50" height="50" relative="1" as="geometry">
                        <mxPoint x="1412.4508086360256" y="669.8826940909478" as="sourcePoint"/>
                        <mxPoint x="1390" y="672.8000000000002" as="targetPoint"/>
                    </mxGeometry>
                </mxCell>
                <mxCell id="68" value="" style="endArrow=none;html=1;" edge="1" parent="1" source="59" target="62">
                    <mxGeometry width="50" height="50" relative="1" as="geometry">
                        <mxPoint x="1432.728919001011" y="714.545987845398" as="sourcePoint"/>
                        <mxPoint x="1390" y="700" as="targetPoint"/>
                    </mxGeometry>
                </mxCell>
                <mxCell id="69" value="" style="endArrow=none;html=1;" edge="1" parent="1" source="30" target="59">
                    <mxGeometry width="50" height="50" relative="1" as="geometry">
                        <mxPoint x="1173.9797633319308" y="1150" as="sourcePoint"/>
                        <mxPoint x="1198.3670777672" y="1180.509868797741" as="targetPoint"/>
                    </mxGeometry>
                </mxCell>
                <mxCell id="70" value="" style="endArrow=none;html=1;" edge="1" parent="1" source="59" target="63">
                    <mxGeometry width="50" height="50" relative="1" as="geometry">
                        <mxPoint x="1247.6666666666667" y="485" as="sourcePoint"/>
                        <mxPoint x="1317.3333333333335" y="650" as="targetPoint"/>
                    </mxGeometry>
                </mxCell>
                <mxCell id="71" value="actor_role" style="ellipse;whiteSpace=wrap;html=1;" vertex="1" parent="1">
                    <mxGeometry x="350" y="1220" width="90" height="30" as="geometry"/>
                </mxCell>
                <mxCell id="72" value="" style="endArrow=none;html=1;" edge="1" parent="1" source="44" target="71">
                    <mxGeometry width="50" height="50" relative="1" as="geometry">
                        <mxPoint x="551.9343832802276" y="1210" as="sourcePoint"/>
                        <mxPoint x="405" y="1170" as="targetPoint"/>
                    </mxGeometry>
                </mxCell>
                <mxCell id="73" value="year_of_award" style="ellipse;whiteSpace=wrap;html=1;" vertex="1" parent="1">
                    <mxGeometry x="625" y="1210" width="90" height="30" as="geometry"/>
                </mxCell>
                <mxCell id="74" value="" style="endArrow=none;html=1;" edge="1" parent="1" source="44" target="73">
                    <mxGeometry width="50" height="50" relative="1" as="geometry">
                        <mxPoint x="551.9343832802276" y="1210" as="sourcePoint"/>
                        <mxPoint x="556.5674073074163" y="1230.0437032680288" as="targetPoint"/>
                    </mxGeometry>
                </mxCell>
                <mxCell id="75" value="director_salary" style="ellipse;whiteSpace=wrap;html=1;" vertex="1" parent="1">
                    <mxGeometry x="1340" y="565" width="90" height="30" as="geometry"/>
                </mxCell>
                <mxCell id="76" value="" style="endArrow=none;html=1;" edge="1" parent="1" source="64" target="30">
                    <mxGeometry width="50" height="50" relative="1" as="geometry">
                        <mxPoint x="1432.1380459503257" y="538.2209625155851" as="sourcePoint"/>
                        <mxPoint x="1330" y="495" as="targetPoint"/>
                    </mxGeometry>
                </mxCell>
                <UserObject label="1" placeholders="1" name="Variable" id="77">
                    <mxCell style="text;html=1;strokeColor=none;fillColor=none;align=center;verticalAlign=middle;whiteSpace=wrap;overflow=hidden;" vertex="1" parent="1">
                        <mxGeometry x="1260" y="570" width="80" height="20" as="geometry"/>
                    </mxCell>
                </UserObject>
                <UserObject label="m" placeholders="1" name="Variable" id="78">
                    <mxCell style="text;html=1;strokeColor=none;fillColor=none;align=center;verticalAlign=middle;whiteSpace=wrap;overflow=hidden;" vertex="1" parent="1">
                        <mxGeometry x="1260" y="540" width="80" height="20" as="geometry"/>
                    </mxCell>
                </UserObject>
                <mxCell id="79" value="sequels" style="rounded=0;whiteSpace=wrap;html=1;" vertex="1" parent="1">
                    <mxGeometry x="1265" y="270" width="120" height="60" as="geometry"/>
                </mxCell>
                <mxCell id="80" value="" style="endArrow=none;html=1;entryX=0.25;entryY=1;entryDx=0;entryDy=0;exitX=0.25;exitY=0;exitDx=0;exitDy=0;" edge="1" parent="1" source="30" target="79">
                    <mxGeometry width="50" height="50" relative="1" as="geometry">
                        <mxPoint x="1270" y="430" as="sourcePoint"/>
                        <mxPoint x="1260" y="520" as="targetPoint"/>
                    </mxGeometry>
                </mxCell>
                <mxCell id="81" value="" style="endArrow=none;html=1;exitX=0.828;exitY=-0.009;exitDx=0;exitDy=0;exitPerimeter=0;entryX=0.75;entryY=1;entryDx=0;entryDy=0;" edge="1" parent="1" source="30" target="79">
                    <mxGeometry width="50" height="50" relative="1" as="geometry">
                        <mxPoint x="1275" y="430" as="sourcePoint"/>
                        <mxPoint x="1275" y="340" as="targetPoint"/>
                    </mxGeometry>
                </mxCell>
                <UserObject label="m" placeholders="1" name="Variable" id="82">
                    <mxCell style="text;html=1;strokeColor=none;fillColor=none;align=center;verticalAlign=middle;whiteSpace=wrap;overflow=hidden;" vertex="1" parent="1">
                        <mxGeometry x="1300" y="340" width="80" height="20" as="geometry"/>
                    </mxCell>
                </UserObject>
                <UserObject label="m" placeholders="1" name="Variable" id="83">
                    <mxCell style="text;html=1;strokeColor=none;fillColor=none;align=center;verticalAlign=middle;whiteSpace=wrap;overflow=hidden;" vertex="1" parent="1">
                        <mxGeometry x="1240" y="340" width="80" height="20" as="geometry"/>
                    </mxCell>
                </UserObject>
                <mxCell id="84" value="film_id" style="ellipse;whiteSpace=wrap;html=1;" vertex="1" parent="1">
                    <mxGeometry x="1210" y="210" width="120" height="40" as="geometry"/>
                </mxCell>
                <mxCell id="85" value="" style="endArrow=none;html=1;" edge="1" parent="1" source="79" target="84">
                    <mxGeometry width="50" height="50" relative="1" as="geometry">
                        <mxPoint x="1210" y="570" as="sourcePoint"/>
                        <mxPoint x="1260" y="520" as="targetPoint"/>
                    </mxGeometry>
                </mxCell>
                <mxCell id="86" value="" style="endArrow=none;html=1;" edge="1" parent="1" source="79" target="87">
                    <mxGeometry width="50" height="50" relative="1" as="geometry">
                        <mxPoint x="1311.4533682075094" y="280" as="sourcePoint"/>
                        <mxPoint x="1295.2407425308525" y="259.34401936608185" as="targetPoint"/>
                    </mxGeometry>
                </mxCell>
                <mxCell id="87" value="sequel(film_id)" style="ellipse;whiteSpace=wrap;html=1;" vertex="1" parent="1">
                    <mxGeometry x="1350" y="200" width="120" height="40" as="geometry"/>
                </mxCell>
                <mxCell id="88" value="movie_id&lt;span style=&quot;color: rgba(0, 0, 0, 0); font-family: monospace; font-size: 0px; text-align: start;&quot;&gt;%3CmxGraphModel%3E%3Croot%3E%3CmxCell%20id%3D%220%22%2F%3E%3CmxCell%20id%3D%221%22%20parent%3D%220%22%2F%3E%3CmxCell%20id%3D%222%22%20value%3D%22salary%22%20style%3D%22ellipse%3BwhiteSpace%3Dwrap%3Bhtml%3D1%3B%22%20vertex%3D%221%22%20parent%3D%221%22%3E%3CmxGeometry%20x%3D%22370%22%20y%3D%22180%22%20width%3D%2290%22%20height%3D%2230%22%20as%3D%22geometry%22%2F%3E%3C%2FmxCell%3E%3C%2Froot%3E%3C%2FmxGraphModel%3E&lt;/span&gt;" style="ellipse;whiteSpace=wrap;html=1;" vertex="1" parent="1">
                    <mxGeometry x="430" y="890" width="90" height="30" as="geometry"/>
                </mxCell>
                <mxCell id="89" value="actor_id" style="ellipse;whiteSpace=wrap;html=1;" vertex="1" parent="1">
                    <mxGeometry x="550" y="900" width="90" height="30" as="geometry"/>
                </mxCell>
                <mxCell id="90" value="" style="endArrow=none;html=1;" edge="1" parent="1" source="19" target="89">
                    <mxGeometry width="50" height="50" relative="1" as="geometry">
                        <mxPoint x="530.8163265306123" y="798.2653061224489" as="sourcePoint"/>
                        <mxPoint x="518.7370465934782" y="749.9481863739129" as="targetPoint"/>
                    </mxGeometry>
                </mxCell>
                <mxCell id="91" value="" style="endArrow=none;html=1;" edge="1" parent="1" source="88" target="19">
                    <mxGeometry width="50" height="50" relative="1" as="geometry">
                        <mxPoint x="512.1238938053098" y="815.0884955752213" as="sourcePoint"/>
                        <mxPoint x="489.02984593990345" y="798.5927470999309" as="targetPoint"/>
                    </mxGeometry>
                </mxCell>
                <mxCell id="92" value="critics" style="rounded=0;whiteSpace=wrap;html=1;" vertex="1" parent="1">
                    <mxGeometry x="650" y="120" width="120" height="60" as="geometry"/>
                </mxCell>
                <mxCell id="93" value="firstname&lt;span style=&quot;color: rgba(0, 0, 0, 0); font-family: monospace; font-size: 0px; text-align: start;&quot;&gt;%3CmxGraphModel%3E%3Croot%3E%3CmxCell%20id%3D%220%22%2F%3E%3CmxCell%20id%3D%221%22%20parent%3D%220%22%2F%3E%3CmxCell%20id%3D%222%22%20value%3D%22expertise%22%20style%3D%22ellipse%3BwhiteSpace%3Dwrap%3Bhtml%3D1%3B%22%20vertex%3D%221%22%20parent%3D%221%22%3E%3CmxGeometry%20x%3D%22970%22%20y%3D%22740%22%20width%3D%2290%22%20height%3D%2230%22%20as%3D%22geometry%22%2F%3E%3C%2FmxCell%3E%3C%2Froot%3E%3C%2FmxGraphModel%3E&lt;/span&gt;" style="ellipse;whiteSpace=wrap;html=1;" vertex="1" parent="1">
                    <mxGeometry x="650" y="70" width="90" height="30" as="geometry"/>
                </mxCell>
                <mxCell id="94" value="lastname&lt;span style=&quot;color: rgba(0, 0, 0, 0); font-family: monospace; font-size: 0px; text-align: start;&quot;&gt;%3CmxGraphModel%3E%3Croot%3E%3CmxCell%20id%3D%220%22%2F%3E%3CmxCell%20id%3D%221%22%20parent%3D%220%22%2F%3E%3CmxCell%20id%3D%222%22%20value%3D%22firstname%26lt%3Bspan%20style%3D%26quot%3Bcolor%3A%20rgba(0%2C%200%2C%200%2C%200)%3B%20font-family%3A%20monospace%3B%20font-size%3A%200px%3B%20text-align%3A%20start%3B%26quot%3B%26gt%3B%253CmxGraphModel%253E%253Croot%253E%253CmxCell%2520id%253D%25220%2522%252F%253E%253CmxCell%2520id%253D%25221%2522%2520parent%253D%25220%2522%252F%253E%253CmxCell%2520id%253D%25222%2522%2520value%253D%2522expertise%2522%2520style%253D%2522ellipse%253BwhiteSpace%253Dwrap%253Bhtml%253D1%253B%2522%2520vertex%253D%25221%2522%2520parent%253D%25221%2522%253E%253CmxGeometry%2520x%253D%2522970%2522%2520y%253D%2522740%2522%2520width%253D%252290%2522%2520height%253D%252230%2522%2520as%253D%2522geometry%2522%252F%253E%253C%252FmxCell%253E%253C%252Froot%253E%253C%252FmxGraphModel%253E%26lt%3B%2Fspan%26gt%3B%22%20style%3D%22ellipse%3BwhiteSpace%3Dwrap%3Bhtml%3D1%3B%22%20vertex%3D%221%22%20parent%3D%221%22%3E%3CmxGeometry%20x%3D%22805%22%20y%3D%22890%22%20width%3D%2290%22%20height%3D%2230%22%20as%3D%22geometry%22%2F%3E%3C%2FmxCell%3E%3C%2Froot%3E%3C%2FmxGraphModel%3E&lt;/span&gt;" style="ellipse;whiteSpace=wrap;html=1;" vertex="1" parent="1">
                    <mxGeometry x="770" y="80" width="90" height="30" as="geometry"/>
                </mxCell>
                <mxCell id="95" value="username" style="ellipse;whiteSpace=wrap;html=1;" vertex="1" parent="1">
                    <mxGeometry x="520" y="130" width="90" height="30" as="geometry"/>
                </mxCell>
                <mxCell id="96" value="password" style="ellipse;whiteSpace=wrap;html=1;" vertex="1" parent="1">
                    <mxGeometry x="540" y="80" width="90" height="30" as="geometry"/>
                </mxCell>
                <mxCell id="97" value="actors_salary" style="rounded=0;whiteSpace=wrap;html=1;" vertex="1" parent="1">
                    <mxGeometry x="235" y="550" width="120" height="60" as="geometry"/>
                </mxCell>
                <mxCell id="98" value="actor_muvies_id" style="ellipse;whiteSpace=wrap;html=1;" vertex="1" parent="1">
                    <mxGeometry x="130" y="565" width="90" height="30" as="geometry"/>
                </mxCell>
                <mxCell id="99" value="" style="endArrow=none;html=1;" edge="1" parent="1" source="97" target="98">
                    <mxGeometry width="50" height="50" relative="1" as="geometry">
                        <mxPoint x="745" y="600" as="sourcePoint"/>
                        <mxPoint x="795" y="550" as="targetPoint"/>
                    </mxGeometry>
                </mxCell>
                <mxCell id="100" value="" style="endArrow=none;html=1;entryX=1;entryY=1;entryDx=0;entryDy=0;" edge="1" parent="1" source="97" target="22">
                    <mxGeometry width="50" height="50" relative="1" as="geometry">
                        <mxPoint x="245" y="582.8603861050055" as="sourcePoint"/>
                        <mxPoint x="217.33709637949983" y="579.5686785872585" as="targetPoint"/>
                    </mxGeometry>
                </mxCell>
                <mxCell id="101" value="" style="endArrow=none;html=1;" edge="1" parent="1" source="19" target="97">
                    <mxGeometry width="50" height="50" relative="1" as="geometry">
                        <mxPoint x="600" y="490" as="sourcePoint"/>
                        <mxPoint x="650" y="440" as="targetPoint"/>
                    </mxGeometry>
                </mxCell>
                <UserObject label="1" placeholders="1" name="Variable" id="102">
                    <mxCell style="text;html=1;strokeColor=none;fillColor=none;align=center;verticalAlign=middle;whiteSpace=wrap;overflow=hidden;" vertex="1" parent="1">
                        <mxGeometry x="370" y="725" width="80" height="20" as="geometry"/>
                    </mxCell>
                </UserObject>
                <UserObject label="1" placeholders="1" name="Variable" id="103">
                    <mxCell style="text;html=1;strokeColor=none;fillColor=none;align=center;verticalAlign=middle;whiteSpace=wrap;overflow=hidden;" vertex="1" parent="1">
                        <mxGeometry x="345" y="690" width="80" height="20" as="geometry"/>
                    </mxCell>
                </UserObject>
                <mxCell id="104" value="" style="endArrow=none;html=1;" edge="1" parent="1" target="92">
                    <mxGeometry width="50" height="50" relative="1" as="geometry">
                        <mxPoint x="858.7704918032787" y="425" as="sourcePoint"/>
                        <mxPoint x="650" y="430" as="targetPoint"/>
                    </mxGeometry>
                </mxCell>
                <mxCell id="105" value="" style="endArrow=none;html=1;" edge="1" parent="1" target="2">
                    <mxGeometry width="50" height="50" relative="1" as="geometry">
                        <mxPoint x="875.4054054054059" y="485" as="sourcePoint"/>
                        <mxPoint x="628.0769230769231" y="310" as="targetPoint"/>
                    </mxGeometry>
                </mxCell>
                <mxCell id="106" value="" style="endArrow=none;html=1;" edge="1" parent="1" source="92" target="95">
                    <mxGeometry width="50" height="50" relative="1" as="geometry">
                        <mxPoint x="730" y="360" as="sourcePoint"/>
                        <mxPoint x="780" y="310" as="targetPoint"/>
                    </mxGeometry>
                </mxCell>
                <mxCell id="107" value="" style="endArrow=none;html=1;" edge="1" parent="1" source="92" target="96">
                    <mxGeometry width="50" height="50" relative="1" as="geometry">
                        <mxPoint x="660" y="157.87841105655662" as="sourcePoint"/>
                        <mxPoint x="619.7873585266491" y="156.45649946428102" as="targetPoint"/>
                    </mxGeometry>
                </mxCell>
                <mxCell id="108" value="" style="endArrow=none;html=1;" edge="1" parent="1" source="92" target="93">
                    <mxGeometry width="50" height="50" relative="1" as="geometry">
                        <mxPoint x="660" y="133.49824182564407" as="sourcePoint"/>
                        <mxPoint x="622.4119823571732" y="116.8957659285843" as="targetPoint"/>
                    </mxGeometry>
                </mxCell>
                <mxCell id="109" value="" style="endArrow=none;html=1;" edge="1" parent="1" source="92" target="94">
                    <mxGeometry width="50" height="50" relative="1" as="geometry">
                        <mxPoint x="712.9640240006256" y="130" as="sourcePoint"/>
                        <mxPoint x="708.2641063100323" y="109.9604872543141" as="targetPoint"/>
                    </mxGeometry>
                </mxCell>
                <mxCell id="110" value="critic_id" style="ellipse;whiteSpace=wrap;html=1;" vertex="1" parent="1">
                    <mxGeometry x="947" y="375" width="90" height="30" as="geometry"/>
                </mxCell>
                <mxCell id="111" value="movie_id" style="ellipse;whiteSpace=wrap;html=1;" vertex="1" parent="1">
                    <mxGeometry x="957" y="425" width="90" height="30" as="geometry"/>
                </mxCell>
                <mxCell id="112" value="rating" style="ellipse;whiteSpace=wrap;html=1;" vertex="1" parent="1">
                    <mxGeometry x="970" y="485" width="90" height="30" as="geometry"/>
                </mxCell>
                <mxCell id="113" value="" style="endArrow=none;html=1;entryX=1;entryY=0;entryDx=0;entryDy=0;" edge="1" parent="1" source="110" target="135">
                    <mxGeometry width="50" height="50" relative="1" as="geometry">
                        <mxPoint x="846.9230769230771" y="435" as="sourcePoint"/>
                        <mxPoint x="929.0000000000002" y="425" as="targetPoint"/>
                    </mxGeometry>
                </mxCell>
                <mxCell id="114" value="" style="endArrow=none;html=1;" edge="1" parent="1" source="111" target="135">
                    <mxGeometry width="50" height="50" relative="1" as="geometry">
                        <mxPoint x="978.5883754802946" y="412.81013417115946" as="sourcePoint"/>
                        <mxPoint x="935.0000000000002" y="447.9133858267717" as="targetPoint"/>
                    </mxGeometry>
                </mxCell>
                <mxCell id="115" value="" style="endArrow=none;html=1;exitX=0;exitY=0;exitDx=0;exitDy=0;" edge="1" parent="1" source="112" target="135">
                    <mxGeometry width="50" height="50" relative="1" as="geometry">
                        <mxPoint x="969.1587147421644" y="454.59013770619686" as="sourcePoint"/>
                        <mxPoint x="935.0000000000002" y="474.07561638115203" as="targetPoint"/>
                    </mxGeometry>
                </mxCell>
                <UserObject label="m&lt;span style=&quot;color: rgba(0, 0, 0, 0); font-family: monospace; font-size: 0px; text-align: start;&quot;&gt;%3CmxGraphModel%3E%3Croot%3E%3CmxCell%20id%3D%220%22%2F%3E%3CmxCell%20id%3D%221%22%20parent%3D%220%22%2F%3E%3CUserObject%20label%3D%221%22%20placeholders%3D%221%22%20name%3D%22Variable%22%20id%3D%222%22%3E%3CmxCell%20style%3D%22text%3Bhtml%3D1%3BstrokeColor%3Dnone%3BfillColor%3Dnone%3Balign%3Dcenter%3BverticalAlign%3Dmiddle%3BwhiteSpace%3Dwrap%3Boverflow%3Dhidden%3B%22%20vertex%3D%221%22%20parent%3D%221%22%3E%3CmxGeometry%20x%3D%22650%22%20y%3D%2220%22%20width%3D%2280%22%20height%3D%2220%22%20as%3D%22geometry%22%2F%3E%3C%2FmxCell%3E%3C%2FUserObject%3E%3C%2Froot%3E%3C%2FmxGraphModel%3E&lt;/span&gt;" placeholders="1" name="Variable" id="116">
                    <mxCell style="text;html=1;strokeColor=none;fillColor=none;align=center;verticalAlign=middle;whiteSpace=wrap;overflow=hidden;" vertex="1" parent="1">
                        <mxGeometry x="820" y="515" width="80" height="20" as="geometry"/>
                    </mxCell>
                </UserObject>
                <UserObject label="m" placeholders="1" name="Variable" id="117">
                    <mxCell style="text;html=1;strokeColor=none;fillColor=none;align=center;verticalAlign=middle;whiteSpace=wrap;overflow=hidden;" vertex="1" parent="1">
                        <mxGeometry x="770" y="390" width="80" height="20" as="geometry"/>
                    </mxCell>
                </UserObject>
                <mxCell id="118" value="critic_id" style="ellipse;whiteSpace=wrap;html=1;" vertex="1" parent="1">
                    <mxGeometry x="590" y="400" width="90" height="30" as="geometry"/>
                </mxCell>
                <mxCell id="119" value="actor_movie_id" style="ellipse;whiteSpace=wrap;html=1;" vertex="1" parent="1">
                    <mxGeometry x="600" y="340" width="90" height="30" as="geometry"/>
                </mxCell>
                <mxCell id="120" value="acting_grade" style="ellipse;whiteSpace=wrap;html=1;" vertex="1" parent="1">
                    <mxGeometry x="405" y="420" width="90" height="30" as="geometry"/>
                </mxCell>
                <mxCell id="121" value="expresion_grade" style="ellipse;whiteSpace=wrap;html=1;" vertex="1" parent="1">
                    <mxGeometry x="450" y="280" width="90" height="30" as="geometry"/>
                </mxCell>
                <mxCell id="122" value="naturalness_grade" style="ellipse;whiteSpace=wrap;html=1;" vertex="1" parent="1">
                    <mxGeometry x="350" y="305" width="100" height="35" as="geometry"/>
                </mxCell>
                <mxCell id="123" value="devotion_grade" style="ellipse;whiteSpace=wrap;html=1;" vertex="1" parent="1">
                    <mxGeometry x="350" y="370" width="90" height="30" as="geometry"/>
                </mxCell>
                <mxCell id="124" value="" style="endArrow=none;html=1;entryX=1;entryY=0;entryDx=0;entryDy=0;" edge="1" parent="1" source="92" target="134">
                    <mxGeometry width="50" height="50" relative="1" as="geometry">
                        <mxPoint x="590" y="480" as="sourcePoint"/>
                        <mxPoint x="545" y="335" as="targetPoint"/>
                    </mxGeometry>
                </mxCell>
                <mxCell id="125" value="" style="endArrow=none;html=1;" edge="1" parent="1" source="134" target="118">
                    <mxGeometry width="50" height="50" relative="1" as="geometry">
                        <mxPoint x="575" y="390" as="sourcePoint"/>
                        <mxPoint x="700" y="460" as="targetPoint"/>
                    </mxGeometry>
                </mxCell>
                <mxCell id="126" value="" style="endArrow=none;html=1;" edge="1" parent="1" source="134" target="119">
                    <mxGeometry width="50" height="50" relative="1" as="geometry">
                        <mxPoint x="575" y="360.384615384615" as="sourcePoint"/>
                        <mxPoint x="616.7248301810619" y="413.3308822969457" as="targetPoint"/>
                    </mxGeometry>
                </mxCell>
                <mxCell id="127" value="" style="endArrow=none;html=1;" edge="1" parent="1" source="121" target="134">
                    <mxGeometry width="50" height="50" relative="1" as="geometry">
                        <mxPoint x="585" y="370.2806395900475" as="sourcePoint"/>
                        <mxPoint x="506.42857142857133" y="335" as="targetPoint"/>
                    </mxGeometry>
                </mxCell>
                <mxCell id="128" value="" style="endArrow=none;html=1;entryX=1;entryY=1;entryDx=0;entryDy=0;" edge="1" parent="1" source="134" target="122">
                    <mxGeometry width="50" height="50" relative="1" as="geometry">
                        <mxPoint x="455" y="342.3049711254271" as="sourcePoint"/>
                        <mxPoint x="440" y="345" as="targetPoint"/>
                    </mxGeometry>
                </mxCell>
                <mxCell id="129" value="" style="endArrow=none;html=1;" edge="1" parent="1" source="134" target="123">
                    <mxGeometry width="50" height="50" relative="1" as="geometry">
                        <mxPoint x="455" y="375" as="sourcePoint"/>
                        <mxPoint x="445.55012986059955" y="344.80581418251495" as="targetPoint"/>
                    </mxGeometry>
                </mxCell>
                <mxCell id="130" value="" style="endArrow=none;html=1;" edge="1" parent="1" target="120">
                    <mxGeometry width="50" height="50" relative="1" as="geometry">
                        <mxPoint x="487.14285714285734" y="395" as="sourcePoint"/>
                        <mxPoint x="445.249223594996" y="388.2917960675004" as="targetPoint"/>
                    </mxGeometry>
                </mxCell>
                <mxCell id="131" value="" style="endArrow=none;html=1;" edge="1" parent="1" source="19">
                    <mxGeometry width="50" height="50" relative="1" as="geometry">
                        <mxPoint x="515.8715596330276" y="673.7155963302753" as="sourcePoint"/>
                        <mxPoint x="515.978260869565" y="395" as="targetPoint"/>
                    </mxGeometry>
                </mxCell>
                <UserObject label="m" placeholders="1" name="Variable" id="132">
                    <mxCell style="text;html=1;strokeColor=none;fillColor=none;align=center;verticalAlign=middle;whiteSpace=wrap;overflow=hidden;" vertex="1" parent="1">
                        <mxGeometry x="510" y="565" width="80" height="20" as="geometry"/>
                    </mxCell>
                </UserObject>
                <UserObject label="m" placeholders="1" name="Variable" id="133">
                    <mxCell style="text;html=1;strokeColor=none;fillColor=none;align=center;verticalAlign=middle;whiteSpace=wrap;overflow=hidden;" vertex="1" parent="1">
                        <mxGeometry x="550" y="240" width="80" height="20" as="geometry"/>
                    </mxCell>
                </UserObject>
                <mxCell id="134" value="actors_critics" style="rhombus;whiteSpace=wrap;html=1;" vertex="1" parent="1">
                    <mxGeometry x="465" y="330" width="100" height="90" as="geometry"/>
                </mxCell>
                <mxCell id="135" value="movies_critics" style="rhombus;whiteSpace=wrap;html=1;" vertex="1" parent="1">
                    <mxGeometry x="822" y="410" width="100" height="90" as="geometry"/>
                </mxCell>
                <mxCell id="136" value="" style="endArrow=none;html=1;" edge="1" parent="1" source="19" target="44">
                    <mxGeometry width="50" height="50" relative="1" as="geometry">
                        <mxPoint x="700" y="1000" as="sourcePoint"/>
                        <mxPoint x="750" y="950" as="targetPoint"/>
                    </mxGeometry>
                </mxCell>
                <UserObject label="1" placeholders="1" name="Variable" id="137">
                    <mxCell style="text;html=1;strokeColor=none;fillColor=none;align=center;verticalAlign=middle;whiteSpace=wrap;overflow=hidden;" vertex="1" parent="1">
                        <mxGeometry x="470" y="985" width="80" height="20" as="geometry"/>
                    </mxCell>
                </UserObject>
                <UserObject label="1" placeholders="1" name="Variable" id="138">
                    <mxCell style="text;html=1;strokeColor=none;fillColor=none;align=center;verticalAlign=middle;whiteSpace=wrap;overflow=hidden;" vertex="1" parent="1">
                        <mxGeometry x="470" y="1015" width="80" height="20" as="geometry"/>
                    </mxCell>
                </UserObject>
            </root>
        </mxGraphModel>
    </diagram>
</mxfile>